<?xml version="1.0" encoding="UTF-8" standalone="no"?>
<!-- Uploaded to: SVG Repo, www.svgrepo.com, Generator: SVG Repo Mixer Tools -->

<svg
   fill="#000000"
   width="424.39999"
   height="749.74091"
   viewBox="0 0 16.976 29.989636"
   version="1.1"
   id="svg1"
   xmlns="http://www.w3.org/2000/svg"
   xmlns:svg="http://www.w3.org/2000/svg">
  <defs
     id="defs1" />
  <title
     id="title1">apache</title>
  <path
     d="m 2.5269999,17.942638 c -0.129,0.598 -0.233,1.321 -0.289,2.058 l -0.003,0.056 c 0,0.025 -0.005,0.05 -0.006,0.075 -0.353,-0.444 -0.778,-0.812 -1.26099998,-1.093 l -0.021,-0.011 c 0.63399998,0.802 1.07899998,1.781 1.25099998,2.851 l 0.005,0.036 c -0.074,0.007 -0.159,0.011 -0.246,0.011 -0.427,0 -0.832,-0.094 -1.19599998,-0.262 l 0.018,0.007 c 0.32699998,0.335 0.73499998,0.588 1.19199998,0.729 l 0.02,0.005 c -0.654,0.131 -1.22399998,0.426 -1.68499998,0.84 l 0.003,-0.003 c 0.47,-0.241 1.02499998,-0.383 1.61299998,-0.383 0.134,0 0.267,0.007 0.397,0.022 l -0.016,-0.001 c -0.762,2.174 -1.53699998,4.567 -2.30299998392334,7.11 C 0.21699992,29.925638 0.38499992,29.761638 0.45299992,29.551638 l 0.001,-0.005 c 0.137,-0.46 1.04999998,-3.482 2.47199998,-7.454 l 0.156,-0.435 c 0.15,-0.415 0.307,-0.84 0.467,-1.275 l 0.112,-0.296 v -0.005 l -1.122,-2.213 c -0.004,0.025 -0.012,0.05 -0.015,0.075 z m 1.72,0.594 c 0.197,-0.507 0.399,-1.012 0.604,-1.531 0.195,-0.492 0.4,-0.987 0.605,-1.487 q 0.951,-2.273 1.999,-4.504 l 0.256,-0.53 c 0.15,-0.304 0.296,-0.6059996 0.45,-0.9049996 0.006,-0.019 0.014,-0.036 0.025,-0.05 v 0 l -1.118,-2.203 -0.055,0.087 c -0.259,0.425 -0.517,0.858 -0.771,1.302 q -0.721,1.254 -1.365,2.5489996 l -0.117,0.241 c -0.531,1.05 -1.063,2.326 -1.508,3.641 l -0.064,0.216 c -0.222,0.654 -0.447,1.491 -0.624,2.346 l -0.026,0.15 1.12,2.212 c 0.146,-0.396 0.3,-0.797 0.455,-1.203 z m 4.661,-10.3969996 q 0.77,-1.438 1.6320001,-2.824 l 0.05,-0.08 c 0.28,-0.44 0.562,-0.866 0.846,-1.275 l -0.856,-1.616 -0.196,0.24 c -0.246,0.306 -0.5040001,0.637 -0.7660001,0.987 q -1.343,1.798 -2.519,3.711 l -0.028,0.047 1.116,2.203 c 0.237,-0.472 0.475,-0.94 0.719,-1.397 z M 12.762,0.13963837 c -0.834,0.636 -1.554,1.36200003 -2.164,2.17500003 l -0.02,0.028 0.857,1.617 c 0.594,-0.857 1.194,-1.605 1.841,-2.31 l -0.014,0.016 0.072,-0.077 c -0.025,0.024 -0.048,0.049 -0.07,0.076 l -10e-4,0.002 c -0.598,0.69 -1.165,1.45 -1.672,2.251 l -0.046,0.077 c 1.266,-0.092 2.408,-0.238 3.53,-0.442 l -0.199,0.03 c 0.083,-0.285 0.131,-0.612 0.131,-0.95 0,-0.635 -0.168,-1.23 -0.462,-1.74400003 l 0.009,0.017 c 0,0 -0.825,-1.337 -1.794,-0.762 z M 3.8269999,20.556638 q -0.219,0.605 -0.444,1.24 l -0.006,0.019 c -0.02,0.057 -0.04,0.117 -0.062,0.177 -0.1,0.284 -0.187,0.54 -0.387,1.125 0.37,0.241 0.66,0.578 0.838,0.977 l 0.006,0.014 c -0.025,-0.491 -0.244,-0.927 -0.581,-1.236 l -10e-4,-10e-4 c 0.186,0.032 0.4,0.05 0.618,0.05 1.273,0 2.403,-0.613 3.111,-1.56 l 0.007,-0.01 c 0.054,-0.09 0.113,-0.199 0.165,-0.312 l 0.009,-0.023 c -0.287,0.353 -0.722,0.577 -1.209,0.577 -0.103,0 -0.203,-0.01 -0.3,-0.029 l 0.01,0.002 h -10e-4 c 0.925,-0.348 1.679,-0.973 2.181,-1.773 l 0.011,-0.018 c 0.117,-0.191 0.232,-0.4 0.35,-0.629 -0.648,0.711 -1.577,1.155 -2.61,1.155 -0.255,0 -0.503,-0.027 -0.742,-0.078 l 0.023,0.004 -0.9,0.097 q -0.044,0.114 -0.084,0.229 z m 4.529,-10.8339996 -0.096,0.2 c -0.097,0.1999996 -0.196,0.3999996 -0.295,0.6099996 -0.107,0.225 -0.215,0.455 -0.325,0.69 l -0.165,0.359 q -0.941,2.04 -1.783,4.124 -0.306,0.744 -0.616,1.537 c -0.187,0.475 -0.371,0.956 -0.562,1.455 l -0.025,0.075 c -0.187,0.495 -0.375,1.002 -0.566,1.525 l -0.012,0.034 0.9,-0.1 c -0.019,-0.001 -0.037,-0.004 -0.054,-0.008 h 0.002 c 1.369,-0.283 2.546,-0.97 3.433,-1.929 l 0.004,-0.004 c 0.438,-0.478 0.827,-1.013 1.152,-1.589 l 0.022,-0.043 c 0.246,-0.428 0.499,-0.945 0.7200001,-1.478 l 0.035,-0.094 c 0.21,-0.506 0.41,-1.053 0.6,-1.647 -0.243,0.127 -0.524,0.229 -0.8200001,0.29 l -0.021,0.004 c -0.095,0.024 -0.211,0.044 -0.329,0.056 l -0.012,10e-4 c 0.9450001,-0.394 1.6860001,-1.118 2.0930001,-2.025 l 0.01,-0.025 c -0.345,0.242 -0.75,0.426 -1.186,0.53 l -0.024,0.005 c -0.075,0.015 -0.145,0.027 -0.217,0.037 l -0.054,0.008 h 0.003 c 0.343,-0.141 0.638,-0.31 0.908,-0.511 l -0.011,0.008 c 0.317,-0.24 0.581,-0.53 0.788,-0.859 l 0.008,-0.013 0.079,-0.13 0.096,-0.192 c 0.146,-0.282 0.301,-0.6319996 0.436,-0.9919996 l 0.023,-0.07 0.038,-0.11 c 0.059,-0.161 0.112,-0.355 0.15,-0.555 l 0.004,-0.024 c -0.034,0.028 -0.073,0.055 -0.113,0.079 l -0.004,0.002 c -0.36,0.193 -0.777,0.34 -1.218,0.421 l -0.026,0.004 -0.001,-10e-4 h -0.021 l -0.125,0.021 0.021,-0.01 -2.8300001,0.312 -0.016,0.027 z m 3.1910001,-5.728 c -0.255,0.387 -0.53,0.825 -0.825,1.325 l -0.05,0.077 q -0.8320001,1.407 -1.5810001,2.862 -0.351,0.675 -0.721,1.432 l 2.8330001,-0.312 c 0.639,-0.255 1.166,-0.676 1.545,-1.209 l 0.007,-0.011 q 0.147,-0.212 0.287,-0.427 c 0.287,-0.454 0.575,-0.953 0.829,-1.45 0.246,-0.482 0.462,-0.958 0.631,-1.387 0.104,-0.275 0.187,-0.527 0.247,-0.75 0.052,-0.197 0.092,-0.384 0.125,-0.562 -0.924,0.174 -2.066,0.32 -3.226,0.406 l -0.108,0.006 z m 5.32,-1.249 -0.219,0.441 -0.215,-0.441 h -0.109 v 0.632 h 0.084 v -0.504 l 0.215,0.437 h 0.056 l 0.215,-0.437 v 0.505 h 0.082 v -0.632 z m -1.125,0 v 0.082 h 0.195 v 0.55 h 0.09 v -0.55 h 0.195 v -0.082 z"
     id="path1"
     style="fill:#ffffff;fill-opacity:1" />
</svg>
