<?xml version="1.0" encoding="UTF-8" standalone="no"?>
<svg
   width="16"
   height="16"
   fill="currentColor"
   class="bi bi-bootstrap"
   viewBox="0 0 16 16"
   version="1.1"
   id="svg2"
   xmlns="http://www.w3.org/2000/svg"
   xmlns:svg="http://www.w3.org/2000/svg">
  <defs
     id="defs2" />
  <path
     d="m 5.062,12 h 3.475 c 1.804,0 2.888,-0.908 2.888,-2.396 0,-1.102 -0.761,-1.916 -1.904,-2.034 v -0.1 c 0.832,-0.14 1.482,-0.93 1.482,-1.816 0,-1.3 -0.955,-2.11 -2.542,-2.11 H 5.062 Z M 6.375,7.125 V 4.658 h 1.78 c 0.973,0 1.542,0.457 1.542,1.237 0,0.802 -0.604,1.23 -1.764,1.23 z m 0,3.762 V 8.162 h 1.822 c 1.236,0 1.887,0.463 1.887,1.348 0,0.896 -0.627,1.377 -1.811,1.377 z"
     id="path1"
     style="fill:#ffffff;fill-opacity:1" />
  <path
     d="M 0,4 A 4,4 0 0 1 4,0 h 8 a 4,4 0 0 1 4,4 v 8 a 4,4 0 0 1 -4,4 H 4 A 4,4 0 0 1 0,12 Z M 4,1 A 3,3 0 0 0 1,4 v 8 a 3,3 0 0 0 3,3 h 8 a 3,3 0 0 0 3,-3 V 4 A 3,3 0 0 0 12,1 Z"
     id="path2"
     style="fill:#ffffff;fill-opacity:1" />
</svg>
