<?xml version="1.0" encoding="UTF-8" standalone="no"?>
<!-- Uploaded to: SVG Repo, www.svgrepo.com, Generator: SVG Repo Mixer Tools -->

<svg
   fill="#000000"
   version="1.1"
   width="569.98438"
   height="798.4328"
   viewBox="0 0 364.79 510.99699"
   enable-background="new 0 0 512 512"
   xml:space="preserve"
   id="svg1"
   sodipodi:docname="css3-01-svgrepo-com.svg"
   xmlns:inkscape="http://www.inkscape.org/namespaces/inkscape"
   xmlns:sodipodi="http://sodipodi.sourceforge.net/DTD/sodipodi-0.dtd"
   xmlns="http://www.w3.org/2000/svg"
   xmlns:svg="http://www.w3.org/2000/svg"><defs
   id="defs1" /><sodipodi:namedview
   id="namedview1"
   pagecolor="#ffffff"
   bordercolor="#000000"
   borderopacity="0.25"
   inkscape:showpageshadow="2"
   inkscape:pageopacity="0.0"
   inkscape:pagecheckerboard="0"
   inkscape:deskcolor="#d1d1d1" />

<g
   id="c133de6af664cd4f011a55de6b001a2b"
   style="fill:#ffffff;fill-opacity:1"
   transform="translate(-73.605003,-0.50099999)">

<path
   display="inline"
   d="M 204.064,46.682 V 68.7 H 147.762 V 0.501 h 56.302 v 24.13 h -32.172 v 22.051 z m 57.877,-22.051 h 22.492 V 0.501 h -56.308 c 0,0 0,12.112 0,24.13 7.533,7.533 11.461,11.139 22.356,22.034 -6.369,0 -22.356,0.022 -22.356,0.021 V 68.7 h 56.308 V 46.682 Z m 79.805,0 h 22.49 V 0.501 H 307.93 c 0,0 0,12.112 0,24.13 7.531,7.533 11.461,11.139 22.355,22.034 -6.365,0 -22.355,0.022 -22.355,0.021 V 68.7 h 56.307 V 46.682 Z m 96.649,76.481 -34.203,370.486 -148.193,39.9 -148.196,-39.9 -34.198,-370.486 z m -68.918,75.332 H 255.865 140.245 l 5.529,44.739 h 110.091 6.184 l -6.184,2.574 -106.067,44.177 3.518,43.73 102.549,0.333 54.963,0.175 -3.521,58.311 -51.442,14.484 v -0.046 l -0.422,0.116 -49.684,-12.542 -3.015,-36.195 h -0.164 -46.085 -0.162 l 6.032,69.876 93.5,27.649 v -0.05 l 0.168,0.05 93,-27.146 12.067,-138.744 h -105.235 -0.26 l 0.26,-0.112 109.086,-46.639 z"
   id="path1"
   style="fill:#ffffff;fill-opacity:1">

</path>

</g>

</svg>
