<?xml version="1.0" encoding="UTF-8" standalone="no"?>
<!-- Uploaded to: SVG Repo, www.svgrepo.com, Generator: SVG Repo Mixer Tools -->

<svg
   width="717.15778"
   height="717.15778"
   viewBox="0 0 21.514733 21.514733"
   fill="none"
   version="1.1"
   id="svg1"
   xmlns="http://www.w3.org/2000/svg"
   xmlns:svg="http://www.w3.org/2000/svg">
  <defs
     id="defs1" />
  <path
     fill-rule="evenodd"
     clip-rule="evenodd"
     d="m 12.171559,2.5857886 c -0.781,-0.78105 -2.0474,-0.78105 -2.8284004,0 l -0.67159,0.67157 1.5677904,1.56774 c 0.1652,-0.04418 0.3388,-0.06774 0.518,-0.06774 1.1046,0 2,0.89543 2,2 0,0.17916 -0.0236,0.35282 -0.0677,0.51804 l 2.0497,2.04966 c 0.1652,-0.0441 0.3388,-0.0677 0.518,-0.0677 1.1046,0 2,0.8954004 2,2.0000004 0,1.1046 -0.8954,2 -2,2 -1.1046,0 -2,-0.8954 -2,-2 0,-0.1792 0.0236,-0.3528 0.0677,-0.518 l -1.5677,-1.5678004 v 4.8534004 c 0.5978,0.3458 1,0.9921 1,1.7324 0,1.1046 -0.8954,2 -2,2 -1.1046004,0 -2.0000004,-0.8954 -2.0000004,-2 0,-0.7403 0.4022,-1.3866 1,-1.7324 V 8.4897986 c -0.5978,-0.34581 -1,-0.99216 -1,-1.73244 0,-0.17916 0.0236,-0.35282 0.0677,-0.51804 l -1.5677,-1.56775 -4.67157,4.67159 c -0.78105,0.7810004 -0.78105,2.0474004 0,2.8284004 l 6.75737,6.7574 c 0.7810004,0.781 2.0474004,0.781 2.8284004,0 l 6.7574,-6.7574 c 0.781,-0.781 0.781,-2.0474 0,-2.8284004 z m -4.2426304,-1.41422 c 1.56213,-1.56209505 4.0947304,-1.56209105 5.6568304,10e-6 l 6.7574,6.75735 c 1.5621,1.56213 1.5621,4.0947304 0,5.6568304 l -6.7574,6.7574 c -1.5621,1.5621 -4.0947004,1.5621 -5.6568304,0 l -6.75736,-6.7574 c -1.56209505,-1.5621 -1.56209105,-4.0947004 10e-6,-5.6568304 z"
     fill="#000000"
     id="path1"
     style="fill:#ffffff;fill-opacity:1" />
</svg>
