<?xml version="1.0" encoding="UTF-8" standalone="no"?>
<!-- Uploaded to: SVG Repo, www.svgrepo.com, Generator: SVG Repo Mixer Tools -->

<svg
   fill="#000000"
   version="1.1"
   width="565.66406"
   height="798.43433"
   viewBox="0 0 362.025 510.99797"
   enable-background="new 0 0 512 512"
   xml:space="preserve"
   id="svg1"
   xmlns="http://www.w3.org/2000/svg"
   xmlns:svg="http://www.w3.org/2000/svg"><defs
   id="defs1" />

<g
   id="c133de6af664cd4f011a55de6b000d0b"
   style="fill:#ffffff;fill-opacity:1"
   transform="translate(-74.987,-0.50099999)">

<path
   display="inline"
   d="m 108.669,0.501 h 23.032 V 23.257 H 152.77 V 0.501 h 23.034 V 69.41 H 152.772 V 46.334 H 131.703 V 69.41 H 108.671 V 0.501 Z m 97.422,22.852 H 185.816 V 0.501 H 249.41 V 23.353 H 229.125 V 69.41 H 206.093 V 23.353 Z M 259.502,0.501 h 24.02 l 14.771,24.213 14.759,-24.213 h 24.023 V 69.41 H 314.137 V 35.256 l -15.845,24.5 h -0.395 l -15.856,-24.5 V 69.41 h -22.539 z m 89.038,0 h 23.038 v 46.133 h 32.391 V 69.41 H 348.54 Z M 74.987,100.926 107.933,470.459 255.777,511.499 404.031,470.4 437.012,100.925 H 74.987 Z m 293.302,87.694 -2.063,22.977 -0.906,10.188 H 365.171 256 255.842 191.886 l 4.142,46.407 h 59.814 0.158 92.98 12.214 l -1.106,12.172 -10.65,119.32 -0.682,7.652 L 256,433.045 v 0.008 l -0.208,0.059 -92.839,-25.774 -6.351,-71.161 h 20.97 24.527 l 3.227,36.146 50.474,13.632 0.042,-0.013 v -0.004 l 50.551,-13.64 5.257,-58.781 H 256 255.842 154.578 L 143.439,188.62 142.354,176.463 H 255.842 256 369.374 Z"
   id="path1"
   style="fill:#ffffff;fill-opacity:1">

</path>

</g>

</svg>
