<?xml version="1.0" encoding="UTF-8" standalone="no"?>
<!-- Uploaded to: SVG Repo, www.svgrepo.com, Generator: SVG Repo Mixer Tools -->

<svg
   fill="#000000"
   width="336.42496"
   height="749.75"
   viewBox="0 0 13.456998 29.99"
   version="1.1"
   id="svg1"
   xmlns="http://www.w3.org/2000/svg"
   xmlns:svg="http://www.w3.org/2000/svg">
  <defs
     id="defs1" />
  <title
     id="title1">mongodb</title>
  <path
     d="m 6.5439996,22.18 c 0,0 0,-10.361 0.344,-10.36 0.266,0 0.612,13.365 0.612,13.365 -0.476,-0.056 -0.956,-2.199 -0.956,-3.005 z M 13.212,11.94 C 12.293,7.924 10.28,4.471 7.5039996,1.806 l -0.007,-0.006 c -0.338,-0.516 -0.647,-1.108 -0.895,-1.732 L 6.5779996,0 c 0.001,0.02 0.001,0.044 0.001,0.068 0,0.565 -0.253,1.07 -0.652,1.409 l -0.003,0.002 C 2.3499996,4.513 0.07599957,8.984 9.9957275e-4,13.987 V 14 C -4.2724609e-7,14.062 -4.2724609e-7,14.135 -4.2724609e-7,14.208 -4.2724609e-7,19.165 2.3849996,23.565 6.0699996,26.323 l 0.039,0.028 0.087,0.063 q 0.241,1.784 0.412,3.576 h 0.601 c 0.166,-1.491 0.39,-2.796 0.683,-4.076 l -0.046,0.239 c 0.396,-0.275 0.742,-0.56 1.065,-0.869 l -0.003,0.003 C 11.709,22.69 13.457,18.99 13.457,14.883 c 0,-0.061 0,-0.121 -0.001,-0.182 v 0.009 c -0.003,-0.981 -0.092,-1.94 -0.261,-2.871 l 0.015,0.099 z"
     id="path1"
     style="fill:#ffffff;fill-opacity:1" />
</svg>
