<?xml version="1.0" encoding="UTF-8" standalone="no"?>
<!-- Uploaded to: SVG Repo, www.svgrepo.com, Generator: SVG Repo Mixer Tools -->

<svg
   fill="#000000"
   width="749.77502"
   height="509.1416"
   viewBox="0 0 29.991001 20.365664"
   version="1.1"
   id="svg1"
   xmlns="http://www.w3.org/2000/svg"
   xmlns:svg="http://www.w3.org/2000/svg">
  <defs
     id="defs1" />
  <title
     id="title1">mysql</title>
  <path
     d="m 29.021,9.3226648 c -0.082,-0.006 -0.177,-0.01 -0.273,-0.01 -0.484,0 -0.947,0.09 -1.373,0.254 l 0.026,-0.009 c -0.125,0.05 -0.325,0.05 -0.342,0.209 0.069,0.066 0.079,0.175 0.137,0.2670002 0.117,0.198 0.261,0.366 0.429,0.506 l 0.003,0.003 c 0.175,0.137 0.35,0.27 0.534,0.387 0.325,0.2 0.694,0.319 1.012,0.52 0.181,0.117 0.366,0.266 0.55,0.391 0.091,0.062 0.15,0.175 0.267,0.215 v -0.025 c -0.057,-0.075 -0.075,-0.184 -0.131,-0.267 -0.084,-0.084 -0.167,-0.159 -0.25,-0.241 -0.248,-0.325 -0.535,-0.603 -0.857,-0.835 l -0.012,-0.008 c -0.267,-0.182 -0.852,-0.437 -0.962,-0.7440002 l -0.016,-0.018 c 0.218,-0.031 0.412,-0.077 0.599,-0.139 l -0.024,0.007 c 0.284,-0.075 0.544,-0.059 0.837,-0.132 0.132,-0.034 0.266,-0.075 0.4,-0.117 v -0.075 c -0.15,-0.15 -0.262,-0.354 -0.417,-0.494 -0.409,-0.36 -0.86,-0.698 -1.335,-1.002 l -0.045,-0.027 c -0.262,-0.167 -0.595,-0.275 -0.871,-0.417 -0.1,-0.05 -0.267,-0.075 -0.325,-0.159 -0.13,-0.185 -0.245,-0.397 -0.336,-0.621 l -0.008,-0.022 q -0.368,-0.714 -0.684,-1.453 c -0.144,-0.383 -0.287,-0.697 -0.448,-1.001 l 0.023,0.047 c -0.786,-1.319 -1.881,-2.379 -3.188,-3.102 l -0.043,-0.022 c -0.309,-0.153 -0.668,-0.272 -1.045,-0.339 l -0.025,-0.004 c -0.209,-0.01 -0.417,-0.025 -0.625,-0.034 -0.146,-0.094 -0.272,-0.19 -0.39,-0.296 l 0.003,0.003 c -0.475,-0.3 -1.704,-0.95 -2.054,-0.09 -0.225,0.542 0.334,1.077 0.527,1.352 0.154,0.183 0.294,0.388 0.415,0.605 l 0.01,0.02 c 0.059,0.145 0.075,0.294 0.134,0.445 0.145,0.452 0.292,0.823 0.459,1.182 l -0.026,-0.062 c 0.099,0.199 0.202,0.368 0.317,0.528 l -0.008,-0.012 c 0.067,0.091 0.182,0.134 0.209,0.284 -0.086,0.181 -0.153,0.391 -0.19,0.61 l -0.002,0.014 c -0.108,0.332 -0.171,0.715 -0.171,1.112 0,0.621 0.153,1.206 0.423,1.72 l -0.01,-0.02 c 0.134,0.207 0.452,0.667 0.878,0.491 0.375,-0.15 0.292,-0.625 0.4,-1.043 0.025,-0.1 0.009,-0.166 0.06,-0.234 v 0.019 c 0.117,0.235 0.235,0.459 0.342,0.694 0.302,0.435 0.661,0.805 1.071,1.11 l 0.013,0.009 c 0.2,0.15 0.359,0.41 0.609,0.502 v -0.025 h -0.019 c -0.057,-0.062 -0.12,-0.117 -0.189,-0.164 l -0.004,-0.002 c -0.155,-0.152 -0.299,-0.316 -0.429,-0.489 l -0.008,-0.011 c -0.326,-0.44 -0.636,-0.938 -0.905,-1.461 l -0.029,-0.061 c -0.137,-0.262 -0.252,-0.545 -0.362,-0.804 -0.05,-0.1 -0.05,-0.25 -0.134,-0.3 -0.148,0.166 -0.281,0.351 -0.392,0.55 l -0.008,0.016 c -0.128,0.373 -0.212,0.804 -0.234,1.251 v 0.011 c -0.034,0.009 -0.017,0 -0.034,0.018 -0.267,-0.065 -0.359,-0.342 -0.459,-0.575 -0.136,-0.366 -0.215,-0.79 -0.215,-1.231 0,-0.356 0.051,-0.7 0.147,-1.025 l -0.006,0.026 c 0.059,-0.175 0.309,-0.727 0.209,-0.895 -0.052,-0.159 -0.217,-0.25 -0.309,-0.379 -0.109,-0.154 -0.209,-0.329 -0.292,-0.514 l -0.008,-0.02 c -0.2,-0.467 -0.3,-0.985 -0.517,-1.452 -0.131,-0.244 -0.269,-0.454 -0.424,-0.65 l 0.007,0.009 c -0.165,-0.191 -0.317,-0.404 -0.449,-0.63 l -0.011,-0.02 c -0.041,-0.091 -0.1,-0.242 -0.034,-0.342 0.012,-0.058 0.058,-0.103 0.117,-0.112 h 10e-4 c 0.11,-0.09 0.419,0.027 0.527,0.077 0.317,0.12 0.59,0.261 0.843,0.427 l -0.016,-0.01 c 0.117,0.082 0.244,0.241 0.394,0.282 h 0.175 c 0.267,0.059 0.569,0.018 0.819,0.091 0.459,0.155 0.856,0.349 1.223,0.587 l -0.021,-0.013 c 1.104,0.713 1.988,1.677 2.586,2.816 l 0.02,0.041 c 0.1,0.192 0.144,0.369 0.235,0.569 0.175,0.412 0.391,0.829 0.569,1.227 0.169,0.428 0.369,0.798 0.607,1.139 l -0.012,-0.018 c 0.125,0.175 0.627,0.266 0.852,0.357 0.237,0.083 0.427,0.162 0.611,0.251 l -0.037,-0.016 c 0.287,0.175 0.567,0.375 0.837,0.567 0.137,0.095 0.554,0.304 0.579,0.472 z M 17.297,16.635665 c 0,0.015 10e-4,0.032 10e-4,0.049 0,0.558 -0.249,1.057 -0.643,1.393 l -0.003,0.002 c -0.432,0.352 -0.989,0.566 -1.596,0.566 -0.047,0 -0.094,-0.001 -0.14,-0.004 h 0.006 c -0.739,-0.01 -1.419,-0.25 -1.976,-0.651 l 0.01,0.007 0.296,-0.595 c 0.429,0.24 0.939,0.389 1.481,0.41 h 0.006 c 0.027,0.002 0.058,0.003 0.09,0.003 0.332,0 0.641,-0.104 0.894,-0.281 l -0.005,0.003 c 0.229,-0.174 0.375,-0.446 0.375,-0.752 0,-0.006 0,-0.011 0,-0.017 v 0.001 c 0,-0.412 -0.287,-0.762 -0.81,-1.056 -0.485,-0.266 -1.453,-0.821 -1.453,-0.821 -0.478,-0.296 -0.791,-0.817 -0.791,-1.411 0,-0.021 0,-0.042 10e-4,-0.063 v 0.003 c -10e-4,-0.019 -10e-4,-0.041 -10e-4,-0.063 0,-0.515 0.227,-0.977 0.586,-1.291 l 0.002,-0.002 c 0.382,-0.324 0.881,-0.521 1.426,-0.521 0.035,0 0.069,10e-4 0.103,0.002 h -0.005 c 0.009,0 0.02,0 0.031,0 0.639,0 1.234,0.191 1.73,0.52 l -0.012,-0.007 -0.266,0.595 c -0.391,-0.176 -0.847,-0.282 -1.327,-0.287 h -0.002 c -0.024,-0.002 -0.051,-0.003 -0.079,-0.003 -0.28,0 -0.538,0.098 -0.74,0.262 l 0.002,-0.002 c -0.189,0.157 -0.309,0.392 -0.31,0.655 v 0 c 0,0.41 0.292,0.762 0.832,1.062 0.491,0.269 1.483,0.837 1.483,0.837 0.488,0.287 0.811,0.809 0.811,1.407 0,0.018 0,0.037 -10e-4,0.055 v -0.003 z m 2.072,0.531 c -0.273,-0.545 -0.432,-1.187 -0.432,-1.866 0,-0.107 0.004,-0.213 0.012,-0.317 l -0.001,0.014 q 0,-2.611 1.587,-2.612 c 0.026,-0.002 0.057,-0.003 0.089,-0.003 0.475,0 0.892,0.248 1.129,0.622 l 0.003,0.005 c 0.271,0.542 0.43,1.182 0.43,1.858 0,0.104 -0.004,0.207 -0.011,0.309 l 10e-4,-0.014 q 0,2.632 -1.587,2.634 c -0.027,0.002 -0.058,0.003 -0.089,0.003 -0.475,0 -0.893,-0.248 -1.13,-0.622 l -0.003,-0.005 z m 4.114,1.552 -1.27,-0.625 c 0.116,-0.097 0.22,-0.199 0.316,-0.309 l 0.003,-0.003 c 0.513,-0.692 0.821,-1.563 0.821,-2.505 0,-0.109 -0.004,-0.217 -0.012,-0.324 l 10e-4,0.014 q 0,-3.43 -2.693,-3.432 c -0.04,-0.002 -0.087,-0.003 -0.134,-0.003 -0.767,0 -1.456,0.337 -1.925,0.872 l -0.002,0.003 c -0.511,0.692 -0.818,1.562 -0.818,2.504 0,0.106 0.004,0.211 0.012,0.315 l -0.001,-0.014 c -0.009,0.101 -0.014,0.219 -0.014,0.338 0,0.874 0.274,1.684 0.74,2.349 l -0.009,-0.013 c 0.449,0.478 1.086,0.776 1.791,0.776 0.066,0 0.131,-0.003 0.195,-0.008 l -0.009,0.001 c 0.009,0 0.021,0 0.032,0 0.311,0 0.612,-0.045 0.897,-0.128 l -0.022,0.006 1.656,0.965 0.45,-0.777 z m 4.148,-0.169 h -3.287 v -6.91 h 1.106 v 6.061 h 2.181 z m -15.401,-5.098 c -0.287,2.084 -0.944,3.965 -1.905,5.65 l 0.04,-0.077 c -0.385,0.741 -1.113,1.257 -1.968,1.34 l -0.01,0.001 c -0.259,-0.014 -0.5,-0.076 -0.719,-0.177 l 0.012,0.005 v -0.617 c 0.137,0.021 0.295,0.033 0.456,0.033 0.009,0 0.018,0 0.028,0 H 8.163 c 0.016,0.001 0.034,0.001 0.052,0.001 0.289,0 0.554,-0.105 0.758,-0.28 l -0.002,0.001 c 0.22,-0.181 0.361,-0.451 0.369,-0.755 v -10e-4 c -0.053,-0.438 -0.154,-0.837 -0.299,-1.214 l 0.012,0.034 -1.267,-3.944 h 1.137 l 0.909,2.949 c 0.162,0.416 0.256,0.898 0.256,1.401 0,0.001 0,0.002 0,0.002 v 0 c 0.482,-1.262 0.848,-2.734 1.034,-4.261 l 0.009,-0.092 z m -5.02,5.098 H 6.052 q -0.049,-2.761 -0.337,-5.511 h -0.01 l -1.762,5.511 H 3.062 l -1.75,-5.511 H 1.3 q -0.205,2.751 -0.244,5.511 H 0 q 0.103,-3.685 0.512,-6.911 h 1.437 l 1.668,5.079 h 0.01 l 1.683,-5.079 h 1.368 q 0.454,3.777 0.535,6.911 z M 20.5,2.0626648 c -0.002,0 -0.005,0 -0.008,0 -0.119,0 -0.234,0.015 -0.344,0.043 l 0.01,-0.002 v 0.016 h 0.017 c 0.086,0.128 0.174,0.239 0.269,0.343 l -0.002,-0.002 c 0.067,0.134 0.125,0.267 0.192,0.4 l 0.017,-0.019 c 0.109,-0.086 0.178,-0.218 0.178,-0.366 0,-0.018 -0.001,-0.035 -0.003,-0.053 v 0.002 c -0.05,-0.059 -0.057,-0.117 -0.1,-0.175 -0.05,-0.084 -0.157,-0.125 -0.225,-0.191 z"
     id="path1"
     style="fill:#ffffff;fill-opacity:1" />
</svg>
