<?xml version="1.0" encoding="UTF-8" standalone="no"?>
<!-- Created with Inkscape (http://www.inkscape.org/) -->

<svg
   width="129.01041mm"
   height="48.632694mm"
   viewBox="0 0 129.01041 48.632694"
   version="1.1"
   id="svg1"
   xml:space="preserve"
   xmlns="http://www.w3.org/2000/svg"
   xmlns:svg="http://www.w3.org/2000/svg"><defs
     id="defs1"><clipPath
       id="a"><path
         d="m 239.03,226.605 -42.13,24.317 c -1.578,0.91 -2.546,2.59 -2.546,4.406 v 48.668 c 0,1.817 0.968,3.496 2.546,4.406 l 42.133,24.336 c 1.575,0.907 3.517,0.907 5.09,0 l 42.126,-24.336 c 1.57,-0.91 2.54,-2.59 2.54,-4.406 v -48.668 c 0,-1.816 -0.97,-3.496 -2.55,-4.406 l -42.12,-24.317 c -0.79,-0.453 -1.67,-0.68 -2.55,-0.68 -0.88,0 -1.76,0.227 -2.55,0.68"
         id="path1-54" /></clipPath><clipPath
       id="c"><path
         d="m 195.398,307.086 c 0.403,0.523 0.907,0.976 1.5,1.316 l 36.14,20.875 6.02,3.46 c 0.9,0.52 1.926,0.74 2.934,0.665 0.336,-0.027 0.672,-0.09 1,-0.183 l 44.434,-81.36 c -0.34,-0.37 -0.738,-0.68 -1.184,-0.94 l -27.586,-15.93 -14.582,-8.39 c -0.414,-0.24 -0.863,-0.41 -1.32,-0.53 z m 0,0"
         id="path3" /></clipPath><clipPath
       id="e"><path
         d="m 241.066,225.953 c -0.707,0.07 -1.398,0.29 -2.035,0.652 l -42.01,24.247 45.3,82.51 c 0.63,-0.09 1.25,-0.3 1.81,-0.624 l 42.13,-24.336 c 1.3,-0.754 2.19,-2.03 2.46,-3.476 l -46.18,-78.89 c -0.34,-0.067 -0.68,-0.102 -1.03,-0.102 -0.14,0 -0.28,0.007 -0.42,0.02"
         id="path6" /></clipPath></defs><g
     id="layer1"
     transform="translate(-53.509603,-0.15592355)"><g
       style="fill:#ffffff;fill-opacity:1"
       id="g1"
       transform="matrix(0.0393248,0,0,0.0393248,131.01007,11.710002)"><g
         id="5151e0c8492e5103c096af88a51e39be"
         transform="matrix(1.1139395,0,0,1.1139395,-210.3118,-143.52308)"
         style="fill:#ffffff;fill-opacity:1">

<path
   display="inline"
   d="M 171.844,204.374 C 160.707,191.626 142.988,185.251 118.698,185.251 H 37.96 L 0.5,377.99 h 41.984 l 9.96,-51.241 h 35.963 c 15.869,0 28.923,-1.663 39.173,-5.003 10.247,-3.33 19.562,-8.92 27.945,-16.767 7.037,-6.467 12.725,-13.599 17.087,-21.4 4.354,-7.797 7.448,-16.401 9.278,-25.812 4.443,-22.848 1.09,-40.643 -10.046,-53.393 z m -33.351,50.449 c -2.903,14.917 -8.492,25.563 -16.775,31.941 -8.288,6.38 -20.897,9.569 -37.822,9.569 H 58.354 L 74.032,215.666 H 102.8 c 15.952,0 26.582,2.943 31.896,8.832 5.31,5.892 6.579,15.999 3.797,30.325 z m 199.335,-17.764 -17.429,89.69 h -42.317 l 16.572,-85.278 c 1.884,-9.702 1.193,-16.32 -2.084,-19.847 -3.272,-3.529 -10.242,-5.296 -20.9,-5.296 h -33.289 l -21.458,110.421 h -41.656 l 37.46,-192.739 h 41.656 l -9.959,51.241 h 37.111 c 23.346,0 39.452,4.077 48.317,12.218 8.866,8.146 11.519,21.344 7.976,39.59 z m 161.726,-32.685 c -11.137,-12.748 -28.856,-19.123 -53.142,-19.123 h -80.738 l -37.46,192.739 h 41.984 l 9.96,-51.241 h 35.963 c 15.869,0 28.918,-1.663 39.169,-5.003 10.247,-3.33 19.562,-8.92 27.945,-16.767 7.036,-6.467 12.729,-13.599 17.088,-21.4 4.354,-7.797 7.447,-16.401 9.277,-25.812 4.442,-22.848 1.094,-40.643 -10.046,-53.393 z m -33.348,50.449 c -2.902,14.917 -8.491,25.563 -16.779,31.941 -8.284,6.38 -20.896,9.569 -37.822,9.569 h -25.537 l 15.678,-80.667 h 28.765 c 15.952,0 26.581,2.943 31.899,8.832 5.31,5.892 6.574,15.999 3.796,30.325 z"
   id="path1"
   style="fill:#ffffff;fill-opacity:1">

</path>

</g></g><g
       style="fill:#ffffff;fill-opacity:1"
       id="g3"
       transform="matrix(0.78293782,0,0,0.78293782,130.08491,36.152013)"><path
         fill-rule="evenodd"
         clip-rule="evenodd"
         d="m 11.912947,-4.7217882 c -0.781,-0.78105 -2.0473999,-0.78105 -2.8283999,0 l -0.67159,0.67157 1.56779,1.56774 c 0.1651999,-0.04418 0.3387999,-0.06774 0.5179999,-0.06774 1.1046,0 2,0.89543 2,1.99999998 0,0.17916 -0.0236,0.35282 -0.0677,0.51804 l 2.0497,2.04965992 c 0.1652,-0.0441 0.3388,-0.0677 0.518,-0.0677 1.1046,0 2,0.8953998 2,1.9999998 0,1.1046 -0.8954,2 -2,2 -1.1046,0 -2,-0.8954 -2,-2 0,-0.1792 0.0236,-0.3528 0.0677,-0.518 l -1.5677,-1.5677998 v 4.8533998 c 0.5978,0.3458 1,0.9921 1,1.7324 0,1.1046 -0.8954,1.9999995 -2,1.9999995 -1.1045999,0 -1.9999999,-0.8953995 -1.9999999,-1.9999995 0,-0.7403 0.4022,-1.3866 1,-1.7324 V 1.1822217 c -0.5978,-0.34580993 -1,-0.99215992 -1,-1.73243992 0,-0.17916 0.0236,-0.35282 0.0677,-0.51803998 l -1.5677,-1.56775 -4.671569,4.6715899 c -0.78105,0.7809998 -0.78105,2.0473998 0,2.8283998 l 6.757369,6.7574005 c 0.781,0.780999 2.0473999,0.780999 2.8283999,0 l 6.7574,-6.7574005 c 0.781,-0.781 0.781,-2.0474 0,-2.8283998 z m -4.2426299,-1.41422 c 1.56213,-1.562095 4.0947299,-1.562091 5.6568299,10e-6 l 6.7574,6.75734997 c 1.5621,1.56212993 1.5621,4.09472973 0,5.65682973 l -6.7574,6.7573995 c -1.5621,1.5621 -4.0946999,1.5621 -5.6568299,0 L 0.91295805,6.2781815 c -1.562095,-1.5621 -1.562091,-4.0946998 1e-5,-5.65682973 z"
         fill="#000000"
         id="path1-7"
         style="fill:#ffffff;fill-opacity:1" /></g><g
       id="g4"
       transform="matrix(1.1751965,0,0,1.1751965,185.66429,176.87506)"><path
         d="m -26.059176,-123.9014 6.378179,2.27277 -0.966828,8.44171 -5.411351,2.99428 -5.411352,-2.99428 -0.966828,-8.44171 6.37818,-2.27277 m 0,1.51518 -3.98997,8.94677 h 1.486318 l 0.80088,-2.00581 h 3.391113 l 0.80088,2.00581 h 1.479102 l -3.968323,-8.94677 m 1.168852,5.69996 h -2.330489 l 1.161637,-2.79226 z"
         id="path1-5"
         style="fill:#ffffff;fill-opacity:1;stroke-width:0.721514" /><path
         style="fill:#ffffff;fill-opacity:1;stroke-width:0.694444"
         d="m 441.31944,167.43879 c 0,-0.44645 0.94679,-2.6873 2.10398,-4.97968 2.10018,-4.16044 2.10201,-4.17448 1.01465,-7.7927 -2.88976,-9.61568 -2.60944,-19.89391 0.78897,-28.92894 5.26344,-13.9934 18.66129,-25.86584 33.25838,-29.471747 2.66635,-0.658667 5.67144,-1.453482 6.67797,-1.766256 1.76561,-0.548655 1.84319,-0.455708 2.20325,2.639538 0.20526,1.764519 0.71581,5.965405 1.13456,9.335295 2.28189,18.36333 -5.21047,36.44199 -18.97709,45.79073 -4.50431,3.05882 -14.00237,6.7381 -17.43401,6.75346 -1.65527,0.007 -2.95852,0.94487 -6.42361,4.62066 -2.39088,2.53626 -4.34705,4.2461 -4.34705,3.79964 z m 17.8501,-24.90407 c 9.1473,-15.73793 11.57778,-20.28277 11.10151,-20.75904 -0.88367,-0.88367 -17.34017,23.86565 -19.34927,29.09982 -1.34666,3.50838 -1.64127,6.06894 -0.69827,6.06894 0.31389,0 4.33961,-6.48437 8.94603,-14.40972 z"
         id="path22"
         transform="matrix(0.22513965,0,0,0.22513965,-158.11021,-148.01707)" /></g><g
       style="fill:#ffffff;fill-opacity:1"
       id="g5"
       transform="matrix(1.2508348,0,0,1.2508348,90.652073,5.5984238)"><path
         fill-rule="nonzero"
         clip-rule="nonzero"
         d="m 7.58638,0.102166 c 0.23352,-0.1362213 0.52229,-0.1362213 0.75581,0 L 14.5565,3.72717 c 0.2304,0.1344 0.3721,0.38108 0.3721,0.64783 v 7.25 c 0,0.2668 -0.1417,0.5134 -0.3721,0.6478 l -6.21431,3.625 c -0.23352,0.1363 -0.52229,0.1363 -0.75581,0 L 6.03281,14.9916 C 5.67502,14.7829 5.55417,14.3236 5.76288,13.9658 5.97159,13.6081 6.43083,13.4872 6.78862,13.6959 l 1.17567,0.6858 5.46431,-3.1875 V 4.80578 L 7.96429,1.61828 2.5,4.80578 v 6.38842 l 1.1168,0.6515 c 0.34418,0.1104 0.76931,0.1374 1.06896,0.005 0.13901,-0.0614 0.26455,-0.1614 0.36392,-0.34 C 5.15426,11.3227 5.25,11.0098 5.25,10.5 V 5.25 C 5.25,4.83579 5.58579,4.5 6,4.5 c 0.41421,0 0.75,0.33579 0.75,0.75 v 5.25 c 0,0.6902 -0.12896,1.2716 -0.38953,1.7399 C 6.09471,12.7176 5.71466,13.036 5.29192,13.2228 4.48562,13.579 3.59523,13.433 3.04999,13.2371 3.00686,13.2216 2.96525,13.2022 2.92567,13.1791 L 1.3721,12.2728 C 1.14168,12.1384 1,11.8918 1,11.625 V 4.375 C 1,4.10825 1.14168,3.86157 1.3721,3.72717 Z M 8.24655,5.28323 C 8.64339,4.81081 9.26318,4.5 10.1042,4.5 c 0.7805,0 1.375,0.26756 1.7773,0.69314 0.2845,0.30103 0.2712,0.77571 -0.0299,1.06024 C 11.5506,6.53792 11.0759,6.52455 10.7914,6.22352 10.7038,6.13087 10.5202,6 10.1042,6 9.66182,6 9.47952,6.14753 9.39511,6.24802 9.28615,6.37774 9.25,6.54184 9.25,6.625 9.25,6.70816 9.28615,6.87226 9.39511,7.00198 9.47952,7.10247 9.66182,7.25 10.1042,7.25 c 0.074,0 0.1455,0.01073 0.2131,0.03072 0.6195,0.08929 1.0916,0.36712 1.4153,0.75251 0.3723,0.4432 0.4966,0.9666 0.4966,1.34177 0,0.37517 -0.1243,0.8986 -0.4966,1.3418 C 11.3358,11.1892 10.716,11.5 9.87501,11.5 9.0945,11.5 8.49996,11.2324 8.09768,10.8069 7.81315,10.5058 7.82652,10.0311 8.12755,9.74662 8.42857,9.46208 8.90325,9.47546 9.18779,9.77648 9.27536,9.86913 9.459,10 9.87501,10 10.3174,10 10.4997,9.85247 10.5841,9.75198 10.693,9.62226 10.7292,9.45816 10.7292,9.375 10.7292,9.29184 10.693,9.12774 10.5841,8.99802 10.4997,8.89753 10.3174,8.75 9.87501,8.75 9.80097,8.75 9.72943,8.73927 9.66188,8.71928 9.04237,8.62999 8.57028,8.35216 8.24655,7.96677 7.87427,7.52357 7.75,7.00017 7.75,6.625 7.75,6.24983 7.87427,5.72643 8.24655,5.28323 Z"
         fill="#000000"
         id="path1-4"
         style="fill:#ffffff;fill-opacity:1" /></g><g
       style="fill:#ffffff;fill-opacity:1"
       id="g6"
       transform="matrix(0.92426774,0,0,0.92426774,85.889499,10.747283)"><path
         d="m 31.30778,30.115349 c -0.082,-0.006 -0.177,-0.01 -0.273,-0.01 -0.484,0 -0.947,0.09 -1.373,0.254 l 0.026,-0.009 c -0.125,0.05 -0.325,0.05 -0.342,0.209 0.069,0.066 0.079,0.175 0.137,0.267 0.117,0.198 0.261,0.366 0.429,0.506 l 0.003,0.003 c 0.175,0.137 0.35,0.27 0.534,0.387 0.325,0.2 0.694,0.319 1.012,0.52 0.181,0.117 0.366,0.266 0.55,0.391 0.091,0.062 0.15,0.175 0.267,0.215 v -0.025 c -0.057,-0.075 -0.075,-0.184 -0.131,-0.267 -0.084,-0.084 -0.167,-0.159 -0.25,-0.241 -0.248,-0.325 -0.535,-0.603 -0.857,-0.835 l -0.012,-0.008 c -0.267,-0.182 -0.852,-0.437 -0.962,-0.744 l -0.016,-0.018 c 0.218,-0.031 0.412,-0.077 0.599,-0.139 l -0.024,0.007 c 0.284,-0.075 0.544,-0.059 0.837,-0.132 0.132,-0.034 0.266,-0.075 0.4,-0.117 v -0.075 c -0.15,-0.15 -0.262,-0.354 -0.417,-0.494 -0.409,-0.36 -0.86,-0.698 -1.335,-1.002 l -0.045,-0.027 c -0.262,-0.167 -0.595,-0.275 -0.871,-0.417 -0.1,-0.05 -0.267,-0.075 -0.325,-0.159 -0.13,-0.185 -0.245,-0.397 -0.336,-0.621 l -0.008,-0.022 q -0.368,-0.714 -0.684,-1.453 c -0.144,-0.383 -0.287,-0.697 -0.448,-1.001 l 0.023,0.047 c -0.786,-1.319 -1.881,-2.379 -3.188,-3.102 l -0.043,-0.022 c -0.309,-0.153 -0.668,-0.272 -1.045,-0.339 l -0.025,-0.004 c -0.209,-0.01 -0.417,-0.025 -0.625,-0.034 -0.146,-0.094 -0.272,-0.19 -0.39,-0.296 l 0.003,0.003 c -0.475,-0.3 -1.704,-0.95 -2.054,-0.09 -0.225,0.542 0.334,1.077 0.527,1.352 0.154,0.183 0.294,0.388 0.415,0.605 l 0.01,0.02 c 0.059,0.145 0.075,0.294 0.134,0.445 0.145,0.452 0.292,0.823 0.459,1.182 l -0.026,-0.062 c 0.099,0.199 0.202,0.368 0.317,0.528 l -0.008,-0.012 c 0.067,0.091 0.182,0.134 0.209,0.284 -0.086,0.181 -0.153,0.391 -0.19,0.61 l -0.002,0.014 c -0.108,0.332 -0.171,0.715 -0.171,1.112 0,0.621 0.153,1.206 0.423,1.72 l -0.01,-0.02 c 0.134,0.207 0.452,0.667 0.878,0.491 0.375,-0.15 0.292,-0.625 0.4,-1.043 0.025,-0.1 0.009,-0.166 0.06,-0.234 v 0.019 c 0.117,0.235 0.235,0.459 0.342,0.694 0.302,0.435 0.661,0.805 1.071,1.11 l 0.013,0.009 c 0.2,0.15 0.359,0.41 0.609,0.502 v -0.025 h -0.019 c -0.057,-0.062 -0.12,-0.117 -0.189,-0.164 l -0.004,-0.002 c -0.155,-0.152 -0.299,-0.316 -0.429,-0.489 l -0.008,-0.011 c -0.326,-0.44 -0.636,-0.938 -0.905,-1.461 l -0.029,-0.061 c -0.137,-0.262 -0.252,-0.545 -0.362,-0.804 -0.05,-0.1 -0.05,-0.25 -0.134,-0.3 -0.148,0.166 -0.281,0.351 -0.392,0.55 l -0.008,0.016 c -0.128,0.373 -0.212,0.804 -0.234,1.251 v 0.011 c -0.034,0.009 -0.017,0 -0.034,0.018 -0.267,-0.065 -0.359,-0.342 -0.459,-0.575 -0.136,-0.366 -0.215,-0.79 -0.215,-1.231 0,-0.356 0.051,-0.7 0.147,-1.025 l -0.006,0.026 c 0.059,-0.175 0.309,-0.727 0.209,-0.895 -0.052,-0.159 -0.217,-0.25 -0.309,-0.379 -0.109,-0.154 -0.209,-0.329 -0.292,-0.514 l -0.008,-0.02 c -0.2,-0.467 -0.3,-0.985 -0.517,-1.452 -0.131,-0.244 -0.269,-0.454 -0.424,-0.65 l 0.007,0.009 c -0.165,-0.191 -0.317,-0.404 -0.449,-0.63 l -0.011,-0.02 c -0.041,-0.091 -0.1,-0.242 -0.034,-0.342 0.012,-0.058 0.058,-0.103 0.117,-0.112 h 0.001 c 0.11,-0.09 0.419,0.027 0.527,0.077 0.317,0.12 0.59,0.261 0.843,0.427 l -0.016,-0.01 c 0.117,0.082 0.244,0.241 0.394,0.282 h 0.175 c 0.267,0.059 0.569,0.018 0.819,0.091 0.459,0.155 0.856,0.349 1.223,0.587 l -0.021,-0.013 c 1.104,0.713 1.988,1.677 2.586,2.816 l 0.02,0.041 c 0.1,0.192 0.144,0.369 0.235,0.569 0.175,0.412 0.391,0.829 0.569,1.227 0.169,0.428 0.369,0.798 0.607,1.139 l -0.012,-0.018 c 0.125,0.175 0.627,0.266 0.852,0.357 0.237,0.083 0.427,0.162 0.611,0.251 l -0.037,-0.016 c 0.287,0.175 0.567,0.375 0.837,0.567 0.137,0.095 0.554,0.304 0.579,0.472 z m -11.724,7.313 c 0,0.015 10e-4,0.032 10e-4,0.049 0,0.558 -0.249,1.057 -0.643,1.393 l -0.003,0.002 c -0.432,0.352 -0.989,0.566 -1.596,0.566 -0.047,0 -0.094,-0.001 -0.14,-0.004 h 0.006 c -0.739,-0.01 -1.419,-0.25 -1.976,-0.651 l 0.01,0.007 0.296,-0.595 c 0.429,0.24 0.939,0.389 1.481,0.41 h 0.006 c 0.027,0.002 0.058,0.003 0.09,0.003 0.332,0 0.641,-0.104 0.894,-0.281 l -0.005,0.003 c 0.229,-0.174 0.375,-0.446 0.375,-0.752 0,-0.006 0,-0.011 0,-0.017 v 10e-4 c 0,-0.412 -0.287,-0.762 -0.81,-1.056 -0.485,-0.266 -1.453,-0.821 -1.453,-0.821 -0.478,-0.296 -0.791,-0.817 -0.791,-1.411 0,-0.021 0,-0.042 10e-4,-0.063 v 0.003 c -10e-4,-0.019 -10e-4,-0.041 -10e-4,-0.063 0,-0.515 0.227,-0.977 0.586,-1.291 l 0.002,-0.002 c 0.382,-0.324 0.881,-0.521 1.426,-0.521 0.035,0 0.069,10e-4 0.103,0.002 h -0.005 c 0.009,0 0.02,0 0.031,0 0.639,0 1.234,0.191 1.73,0.52 l -0.012,-0.007 -0.266,0.595 c -0.391,-0.176 -0.847,-0.282 -1.327,-0.287 h -0.002 c -0.024,-0.002 -0.051,-0.003 -0.079,-0.003 -0.28,0 -0.538,0.098 -0.74,0.262 l 0.002,-0.002 c -0.189,0.157 -0.309,0.392 -0.31,0.655 v 0 c 0,0.41 0.292,0.762 0.832,1.062 0.491,0.269 1.483,0.837 1.483,0.837 0.488,0.287 0.811,0.809 0.811,1.407 0,0.018 0,0.037 -10e-4,0.055 v -0.003 z m 2.072,0.531 c -0.273,-0.545 -0.432,-1.187 -0.432,-1.866 0,-0.107 0.004,-0.213 0.012,-0.317 l -10e-4,0.014 q 0,-2.611 1.587,-2.612 c 0.026,-0.002 0.057,-0.003 0.089,-0.003 0.475,0 0.892,0.248 1.129,0.622 l 0.003,0.005 c 0.271,0.542 0.43,1.182 0.43,1.858 0,0.104 -0.004,0.207 -0.011,0.309 l 10e-4,-0.014 q 0,2.632 -1.587,2.634 c -0.027,0.002 -0.058,0.003 -0.089,0.003 -0.475,0 -0.893,-0.248 -1.13,-0.622 l -0.003,-0.005 z m 4.114,1.552 -1.27,-0.625 c 0.116,-0.097 0.22,-0.199 0.316,-0.309 l 0.003,-0.003 c 0.513,-0.692 0.821,-1.563 0.821,-2.505 0,-0.109 -0.004,-0.217 -0.012,-0.324 l 10e-4,0.014 q 0,-3.43 -2.693,-3.432 c -0.04,-0.002 -0.087,-0.003 -0.134,-0.003 -0.767,0 -1.456,0.337 -1.925,0.872 l -0.002,0.003 c -0.511,0.692 -0.818,1.562 -0.818,2.504 0,0.106 0.004,0.211 0.012,0.315 l -0.001,-0.014 c -0.009,0.101 -0.014,0.219 -0.014,0.338 0,0.874 0.274,1.684 0.74,2.349 l -0.009,-0.013 c 0.449,0.478 1.086,0.776 1.791,0.776 0.066,0 0.131,-0.003 0.195,-0.008 l -0.009,0.001 c 0.009,0 0.021,0 0.032,0 0.311,0 0.612,-0.045 0.897,-0.128 l -0.022,0.006 1.656,0.965 0.45,-0.777 z m 4.148,-0.169 h -3.287 v -6.91 h 1.106 v 6.061 h 2.181 z m -15.401,-5.098 c -0.287,2.084 -0.944,3.965 -1.905,5.65 l 0.04,-0.077 c -0.385,0.741 -1.113,1.257 -1.968,1.34 l -0.01,10e-4 c -0.259,-0.014 -0.5,-0.076 -0.7189996,-0.177 l 0.012,0.005 v -0.617 c 0.1369996,0.021 0.2949996,0.033 0.4559996,0.033 0.009,0 0.018,0 0.028,0 h -10e-4 c 0.016,10e-4 0.034,10e-4 0.052,10e-4 0.289,0 0.554,-0.105 0.758,-0.28 l -0.002,0.001 c 0.22,-0.181 0.361,-0.451 0.369,-0.755 v -10e-4 c -0.053,-0.438 -0.154,-0.837 -0.299,-1.214 l 0.012,0.034 -1.267,-3.944 h 1.137 l 0.909,2.949 c 0.162,0.416 0.256,0.898 0.256,1.401 0,10e-4 0,0.002 0,0.002 v 0 c 0.482,-1.262 0.848,-2.734 1.034,-4.261 l 0.009,-0.092 z m -5.0199996,5.098 h -1.158 q -0.049,-2.761 -0.337,-5.511 h -0.01 l -1.762,5.511 h -0.881 l -1.75,-5.511 h -0.012 q -0.205,2.751 -0.244,5.511 h -1.056 q 0.103,-3.685 0.512,-6.911 h 1.437 l 1.668,5.079 h 0.01 l 1.683,-5.079 h 1.368 q 0.454,3.777 0.535,6.911 z m 13.2899996,-16.487 c -0.002,0 -0.005,0 -0.008,0 -0.119,0 -0.234,0.015 -0.344,0.043 l 0.01,-0.002 v 0.016 h 0.017 c 0.086,0.128 0.174,0.239 0.269,0.343 l -0.002,-0.002 c 0.067,0.134 0.125,0.267 0.192,0.4 l 0.017,-0.019 c 0.109,-0.086 0.178,-0.218 0.178,-0.366 0,-0.018 -0.001,-0.035 -0.003,-0.053 v 0.002 c -0.05,-0.059 -0.057,-0.117 -0.1,-0.175 -0.05,-0.084 -0.157,-0.125 -0.225,-0.191 z"
         id="path1-8"
         style="fill:#ffffff;fill-opacity:1" /></g><g
       style="fill:#ffffff;fill-opacity:1"
       id="g7"
       transform="matrix(0.68139886,0,0,0.68139886,113.03864,1.033328)"><path
         d="m 2.8933052,16.654985 c -0.129,0.598 -0.233,1.321 -0.289,2.058 l -0.003,0.056 c 0,0.025 -0.005,0.05 -0.006,0.075 -0.353,-0.444 -0.778,-0.812 -1.261,-1.093 l -0.021,-0.011 c 0.634,0.802 1.079,1.781 1.251,2.851 l 0.005,0.036 c -0.074,0.007 -0.159,0.011 -0.246,0.011 -0.427,0 -0.832,-0.094 -1.196,-0.262 l 0.018,0.007 c 0.327,0.335 0.735,0.588 1.192,0.729 l 0.02,0.005 c -0.654,0.131 -1.224,0.426 -1.685,0.84 l 0.003,-0.003 c 0.47,-0.241 1.025,-0.383 1.613,-0.383 0.134,0 0.267,0.007 0.397,0.022 l -0.016,-10e-4 c -0.762,2.174 -1.537,4.567 -2.303,7.11 0.217,-0.064 0.385,-0.228 0.453,-0.438 l 0.001,-0.005 c 0.137,-0.46 1.05,-3.482 2.472,-7.454 l 0.156,-0.435 c 0.15,-0.415 0.307,-0.84 0.467,-1.275 l 0.112,-0.296 v -0.005 l -1.122,-2.213 c -0.004,0.025 -0.012,0.05 -0.015,0.075 z m 1.72,0.594 c 0.197,-0.507 0.399,-1.012 0.604,-1.531 0.195,-0.492 0.4,-0.987 0.605,-1.487 q 0.951,-2.273 1.999,-4.5040003 l 0.256,-0.53 c 0.15,-0.304 0.296,-0.606 0.45,-0.905 0.006,-0.019 0.014,-0.036 0.025,-0.05 v 0 l -1.118,-2.203 -0.055,0.087 c -0.259,0.425 -0.517,0.858 -0.771,1.302 q -0.721,1.254 -1.365,2.549 l -0.117,0.2410003 c -0.531,1.05 -1.063,2.326 -1.508,3.641 l -0.064,0.216 c -0.222,0.654 -0.447,1.491 -0.624,2.346 l -0.026,0.15 1.12,2.212 c 0.146,-0.396 0.3,-0.797 0.455,-1.203 z m 4.661,-10.3970003 q 0.7699998,-1.438 1.6319998,-2.824 l 0.05,-0.08 c 0.28,-0.44 0.562,-0.866 0.846,-1.275 l -0.856,-1.616 -0.196,0.24 c -0.246,0.306 -0.504,0.637 -0.7659998,0.987 q -1.343,1.798 -2.519,3.711 l -0.028,0.047 1.116,2.203 c 0.237,-0.472 0.475,-0.94 0.719,-1.397 z m 3.8539998,-8 c -0.834,0.63599999 -1.554,1.36199999 -2.164,2.175 l -0.02,0.028 0.857,1.617 c 0.594,-0.857 1.194,-1.605 1.841,-2.31000001 l -0.014,0.016 0.072,-0.077 c -0.025,0.024 -0.048,0.049 -0.07,0.076 l -10e-4,0.002 c -0.598,0.69000001 -1.165,1.45000001 -1.672,2.25100001 l -0.046,0.077 c 1.266,-0.092 2.408,-0.238 3.53,-0.442 l -0.199,0.03 c 0.083,-0.285 0.131,-0.612 0.131,-0.95 0,-0.63500001 -0.168,-1.23000001 -0.462,-1.74400001 l 0.009,0.017 c 0,0 -0.825,-1.33699999 -1.794,-0.76199999 z M 4.1933052,19.268985 q -0.219,0.605 -0.444,1.24 l -0.006,0.019 c -0.02,0.057 -0.04,0.117 -0.062,0.177 -0.1,0.284 -0.187,0.54 -0.387,1.125 0.37,0.241 0.66,0.578 0.838,0.977 l 0.006,0.014 c -0.025,-0.491 -0.244,-0.927 -0.581,-1.236 l -10e-4,-0.001 c 0.186,0.032 0.4,0.05 0.618,0.05 1.273,0 2.403,-0.613 3.111,-1.56 l 0.007,-0.01 c 0.054,-0.09 0.113,-0.199 0.165,-0.312 l 0.009,-0.023 c -0.287,0.353 -0.722,0.577 -1.209,0.577 -0.103,0 -0.203,-0.01 -0.3,-0.029 l 0.01,0.002 h -0.001 c 0.925,-0.348 1.679,-0.973 2.181,-1.773 l 0.011,-0.018 c 0.117,-0.191 0.232,-0.4 0.35,-0.629 -0.648,0.711 -1.577,1.155 -2.61,1.155 -0.255,0 -0.503,-0.027 -0.742,-0.078 l 0.023,0.004 -0.9,0.097 q -0.044,0.114 -0.084,0.229 z m 4.529,-10.8340003 -0.096,0.2 c -0.097,0.2 -0.196,0.4 -0.295,0.61 -0.107,0.225 -0.215,0.455 -0.325,0.69 l -0.165,0.3590003 q -0.941,2.04 -1.783,4.124 -0.306,0.744 -0.616,1.537 c -0.187,0.475 -0.371,0.956 -0.562,1.455 l -0.025,0.075 c -0.187,0.495 -0.375,1.002 -0.566,1.525 l -0.012,0.034 0.9,-0.1 c -0.019,-0.001 -0.037,-0.004 -0.054,-0.008 h 0.002 c 1.369,-0.283 2.546,-0.97 3.433,-1.929 l 0.004,-0.004 c 0.438,-0.478 0.827,-1.013 1.152,-1.589 l 0.022,-0.043 c 0.246,-0.428 0.4989998,-0.945 0.7199998,-1.478 l 0.035,-0.094 c 0.21,-0.506 0.41,-1.053 0.6,-1.647 -0.243,0.127 -0.524,0.229 -0.82,0.29 l -0.021,0.004 c -0.095,0.024 -0.211,0.044 -0.3289998,0.056 l -0.012,0.001 c 0.9449998,-0.394 1.6859998,-1.118 2.0929998,-2.025 l 0.01,-0.025 c -0.345,0.242 -0.75,0.426 -1.186,0.53 l -0.024,0.005 c -0.075,0.015 -0.145,0.027 -0.217,0.037 l -0.054,0.008 h 0.003 c 0.343,-0.141 0.638,-0.31 0.908,-0.511 l -0.011,0.008 c 0.317,-0.24 0.581,-0.5300003 0.788,-0.8590003 l 0.008,-0.013 0.079,-0.13 0.096,-0.192 c 0.146,-0.282 0.301,-0.632 0.436,-0.992 l 0.023,-0.07 0.038,-0.11 c 0.059,-0.161 0.112,-0.355 0.15,-0.555 l 0.004,-0.024 c -0.034,0.028 -0.073,0.055 -0.113,0.079 l -0.004,0.002 c -0.36,0.193 -0.777,0.34 -1.218,0.421 l -0.026,0.004 -10e-4,-10e-4 h -0.021 l -0.125,0.021 0.021,-0.01 -2.8299998,0.312 -0.016,0.027 z m 3.1909998,-5.728 c -0.255,0.387 -0.53,0.825 -0.825,1.325 l -0.05,0.077 q -0.832,1.407 -1.5809998,2.862 -0.351,0.675 -0.721,1.432 l 2.8329998,-0.312 c 0.639,-0.255 1.166,-0.676 1.545,-1.209 l 0.007,-0.011 q 0.147,-0.212 0.287,-0.427 c 0.287,-0.454 0.575,-0.953 0.829,-1.45 0.246,-0.482 0.462,-0.958 0.631,-1.387 0.104,-0.275 0.187,-0.527 0.247,-0.75 0.052,-0.197 0.092,-0.384 0.125,-0.562 -0.924,0.174 -2.066,0.32 -3.226,0.406 l -0.108,0.006 z m 5.32,-1.249 -0.219,0.441 -0.215,-0.441 h -0.109 v 0.632 h 0.084 v -0.504 l 0.215,0.437 h 0.056 l 0.215,-0.437 v 0.505 h 0.082 v -0.632 z m -1.125,0 v 0.082 h 0.195 v 0.55 h 0.09 v -0.55 h 0.195 v -0.082 z"
         id="path1-46"
         style="fill:#ffffff;fill-opacity:1" /></g><g
       style="fill:#ffffff;fill-opacity:1"
       id="g8"
       transform="matrix(1.0330845,0,0,1.0330845,45.859905,33.990044)"><path
         d="m 27.827339,8.7986242 h 3.475 c 1.804,0 2.888,-0.908 2.888,-2.396 0,-1.102 -0.761,-1.916 -1.904,-2.034 v -0.1 c 0.832,-0.14 1.482,-0.93 1.482,-1.816 0,-1.3 -0.955,-2.10999995 -2.542,-2.10999995 h -3.399 z m 1.313,-4.875 v -2.467 h 1.78 c 0.973,0 1.542,0.457 1.542,1.237 0,0.802 -0.604,1.23 -1.764,1.23 z m 0,3.762 v -2.725 h 1.822 c 1.236,0 1.887,0.463 1.887,1.348 0,0.896 -0.627,1.377 -1.811,1.377 z"
         id="path1-0"
         style="fill:#ffffff;fill-opacity:1" /><path
         d="m 22.765339,0.79862425 a 4,4 0 0 1 4,-4.00000005 h 8 a 4,4 0 0 1 4,4.00000005 V 8.7986242 a 4,4 0 0 1 -4,3.9999998 h -8 a 4,4 0 0 1 -4,-3.9999998 z m 4,-3.00000005 a 3,3 0 0 0 -3,3.00000005 V 8.7986242 a 3,3 0 0 0 3,2.9999998 h 8 a 3,3 0 0 0 3,-2.9999998 V 0.79862425 a 3,3 0 0 0 -3,-3.00000005 z"
         id="path2"
         style="fill:#ffffff;fill-opacity:1" /></g><g
       style="fill:#ffffff;fill-opacity:1"
       id="g9"
       transform="matrix(0.04275333,0,0,0.04275333,97.58076,98.681193)"><g
         id="c133de6af664cd4f011a55de6b001a2b"
         transform="matrix(0.77344526,0,0,0.77344526,1153.043,-2218.8363)"
         style="fill:#ffffff;fill-opacity:1">

<path
   display="inline"
   d="M 204.064,46.682 V 68.7 H 147.762 V 0.501 h 56.302 v 24.13 h -32.172 v 22.051 z m 57.877,-22.051 h 22.492 V 0.501 h -56.308 c 0,0 0,12.112 0,24.13 7.533,7.533 11.461,11.139 22.356,22.034 -6.369,0 -22.356,0.022 -22.356,0.021 V 68.7 h 56.308 V 46.682 Z m 79.805,0 h 22.49 V 0.501 H 307.93 c 0,0 0,12.112 0,24.13 7.531,7.533 11.461,11.139 22.355,22.034 -6.365,0 -22.355,0.022 -22.355,0.021 V 68.7 h 56.307 V 46.682 Z m 96.649,76.481 -34.203,370.486 -148.193,39.9 -148.196,-39.9 -34.198,-370.486 z m -68.918,75.332 H 255.865 140.245 l 5.529,44.739 h 110.091 6.184 l -6.184,2.574 -106.067,44.177 3.518,43.73 102.549,0.333 54.963,0.175 -3.521,58.311 -51.442,14.484 v -0.046 l -0.422,0.116 -49.684,-12.542 -3.015,-36.195 h -0.164 -46.085 -0.162 l 6.032,69.876 93.5,27.649 v -0.05 l 0.168,0.05 93,-27.146 12.067,-138.744 h -105.235 -0.26 l 0.26,-0.112 109.086,-46.639 z"
   id="path1-94"
   style="fill:#ffffff;fill-opacity:1">

</path>

</g></g><g
       style="fill:#ffffff;fill-opacity:1"
       id="g10"
       transform="matrix(0.03393202,0,0,0.03393202,50.965143,29.757738)"><g
         id="c133de6af664cd4f011a55de6b000d0b"
         style="fill:#ffffff;fill-opacity:1">

<path
   display="inline"
   d="m 108.669,0.501 h 23.032 V 23.257 H 152.77 V 0.501 h 23.034 V 69.41 H 152.772 V 46.334 H 131.703 V 69.41 H 108.671 V 0.501 Z m 97.422,22.852 H 185.816 V 0.501 H 249.41 V 23.353 H 229.125 V 69.41 H 206.093 V 23.353 Z M 259.502,0.501 h 24.02 l 14.771,24.213 14.759,-24.213 h 24.023 V 69.41 H 314.137 V 35.256 l -15.845,24.5 h -0.395 l -15.856,-24.5 V 69.41 h -22.539 z m 89.038,0 h 23.038 v 46.133 h 32.391 V 69.41 H 348.54 Z M 74.987,100.926 107.933,470.459 255.777,511.499 404.031,470.4 437.012,100.925 H 74.987 Z m 293.302,87.694 -2.063,22.977 -0.906,10.188 H 365.171 256 255.842 191.886 l 4.142,46.407 h 59.814 0.158 92.98 12.214 l -1.106,12.172 -10.65,119.32 -0.682,7.652 L 256,433.045 v 0.008 l -0.208,0.059 -92.839,-25.774 -6.351,-71.161 h 20.97 24.527 l 3.227,36.146 50.474,13.632 0.042,-0.013 v -0.004 l 50.551,-13.64 5.257,-58.781 H 256 255.842 154.578 L 143.439,188.62 142.354,176.463 H 255.842 256 369.374 Z"
   id="path1-88"
   style="fill:#ffffff;fill-opacity:1">

</path>

</g></g><g
       style="fill:#ffffff;fill-opacity:1"
       id="g11"
       transform="matrix(1.0727104,0,0,1.0585564,103.84464,14.812604)"><path
         fill-rule="nonzero"
         clip-rule="nonzero"
         d="m 57.342608,16.476117 c 0,-0.966499 0.783502,-1.75 1.75,-1.75 h 12.5 c 0.9665,0 1.75,0.783502 1.75,1.75 v 2 c 0,0.41421 -0.3358,0.75 -0.75,0.75 -0.4142,0 -0.75,-0.33579 -0.75,-0.75 v -2 c 0,-0.13807 -0.1119,-0.25 -0.25,-0.25 h -12.5 c -0.13807,0 -0.25,0.11193 -0.25,0.25 v 12.5 c 0,0.1381 0.11193,0.25 0.25,0.25 h 13.5 c 0.4142,0 0.75,0.3358 0.75,0.75 0,0.4142 -0.3358,0.75 -0.75,0.75 h -13.5 c -0.966499,0 -1.75,-0.7835 -1.75,-1.75 z m 4.75,4.75 c 0,-0.41421 0.33579,-0.75 0.75,-0.75 h 3.75 c 0.41421,0 0.75,0.33579 0.75,0.75 0,0.41421 -0.33579,0.75 -0.75,0.75 h -1 v 5.25 c 0,0.4142 -0.33579,0.75 -0.75,0.75 -0.41421,0 -0.75,-0.3358 -0.75,-0.75 v -5.25 h -1.25 c -0.41421,0 -0.75,-0.33579 -0.75,-0.75 z m 6.5257,0.08011 c 0.4187,-0.49847 1.075,-0.83011 1.9743,-0.83011 0.8349,0 1.4648,0.28567 1.8894,0.73481 0.2845,0.30102 0.2711,0.77571 -0.0299,1.06024 -0.301,0.28453 -0.7757,0.27116 -1.0602,-0.02986 -0.1099,-0.11621 -0.3289,-0.26519 -0.7993,-0.26519 -0.5007,0 -0.7194,0.16836 -0.8257,0.29489 -0.1309,0.15576 -0.1743,0.35111 -0.1743,0.45511 0,0.104 0.0434,0.29935 0.1743,0.45511 0.1063,0.12653 0.325,0.29489 0.8257,0.29489 0.0757,0 0.1488,0.01121 0.2176,0.03207 0.6631,0.09439 1.1643,0.39044 1.5067,0.79804 0.3941,0.46919 0.5257,1.02389 0.5257,1.41989 0,0.396 -0.1316,0.9507 -0.5257,1.4199 -0.4187,0.4985 -1.075,0.8301 -1.9743,0.8301 -0.8349,0 -1.4648,-0.2857 -1.8894,-0.7348 -0.2845,-0.301 -0.2711,-0.7757 0.0299,-1.0603 0.301,-0.2845 0.7757,-0.2711 1.0602,0.0299 0.1099,0.1162 0.3289,0.2652 0.7993,0.2652 0.5007,0 0.7194,-0.1684 0.8257,-0.2949 0.1309,-0.1558 0.1743,-0.3511 0.1743,-0.4551 0,-0.104 -0.0434,-0.2993 -0.1743,-0.4551 -0.1063,-0.1265 -0.325,-0.2949 -0.8257,-0.2949 -0.0757,0 -0.1488,-0.0112 -0.2176,-0.0321 -0.6631,-0.0944 -1.1643,-0.39041 -1.5067,-0.79801 -0.3941,-0.46924 -0.5257,-1.02389 -0.5257,-1.41989 0,-0.396 0.1316,-0.95065 0.5257,-1.41989 z"
         fill="#000000"
         id="path1-53"
         style="fill:#ffffff;fill-opacity:1" /></g><g
       style="fill:#ffffff;fill-opacity:1"
       id="g13"
       transform="matrix(0.03792268,0,0,0.03792268,163.92451,1.0720713)"><g
         id="5151e0c8492e5103c096af88a51e8d81"
         style="fill:#ffffff;fill-opacity:1">

<path
   display="inline"
   d="m 193.918,208.369 c -4.729,-10.456 -6.849,-22.652 -3.236,-33.731 3.612,-11.327 11.703,-20.413 19.794,-28.878 22.525,-22.531 50.285,-39.085 72.316,-61.986 12.197,-12.573 22.278,-27.634 25.762,-44.937 2.864,-12.695 1.496,-25.764 -1.117,-38.337 11.7,13.319 15.559,32.363 12.197,49.541 -3.608,19.292 -14.316,36.344 -26.886,51.031 -10.081,11.827 -21.659,22.282 -33.731,31.993 -14.065,11.327 -27.88,23.524 -36.716,39.457 -7.472,12.943 -9.215,28.876 -4.11,42.942 8.341,24.146 27.756,42.071 38.338,64.848 -11.703,-10.332 -23.152,-21.036 -33.86,-32.361 -11.198,-11.95 -21.78,-24.644 -28.751,-39.582 z m 63.48,-18.921 c -2.115,19.792 8.213,38.462 20.539,53.151 5.972,6.596 11.076,14.687 11.323,23.899 0.251,12.318 -6.716,23.774 -15.684,31.861 2.119,-0.246 3.612,-2.115 5.355,-3.11 13.443,-8.589 26.385,-19.418 32.982,-34.227 4.357,-10.083 3.362,-22.034 -2.362,-31.371 -6.724,-10.953 -15.559,-20.662 -20.786,-32.61 -2.867,-6.721 -3.862,-14.562 -1.496,-21.657 3.114,-9.583 9.834,-17.426 16.93,-24.272 19.54,-18.544 43.189,-31.743 65.844,-46.179 -28.629,8.214 -56.883,19.542 -81.03,37.343 -15.311,11.451 -29.498,27.382 -31.615,47.172 z m 136.049,93.604 c 13.568,0.748 26.882,10.704 29.374,24.397 2.366,11.825 -3.358,23.524 -10.705,32.485 -12.075,14.438 -28.382,24.771 -44.807,33.609 -1.622,0.991 -2.99,2.237 -4.235,3.608 21.659,-5.478 43.314,-13.689 60.867,-27.756 9.705,-8.091 18.294,-18.799 20.163,-31.619 1.743,-11.076 -2.86,-22.528 -11.077,-29.871 -9.96,-9.09 -24.021,-12.448 -37.218,-10.704 -7.593,0.995 -15.931,2.613 -21.158,8.961 6.226,-1.241 12.32,-3.733 18.796,-3.11 z M 123.22,318.647 c 16.303,4.357 33.108,5.603 49.787,6.724 14.936,0.995 29.875,1.246 44.937,1.12 38.833,-0.619 77.916,-3.236 116.003,-11.699 3.608,-0.87 7.593,-1.493 10.833,-3.733 6.347,-4.11 13.313,-7.347 20.162,-10.583 -30.995,4.979 -62.113,9.215 -93.478,11.205 -31.74,1.991 -63.731,3.236 -95.593,1.121 -9.086,-0.87 -18.423,-1.371 -26.886,-4.858 -1.994,-0.87 -4.733,-2.609 -3.738,-5.227 1.869,-3.361 5.603,-4.977 8.839,-6.72 13.694,-6.473 28.629,-10.081 43.193,-14.313 -25.021,-0.376 -49.916,5.971 -72.814,15.806 -5.105,2.491 -10.83,4.481 -14.936,8.714 -1.622,1.739 -1.622,4.732 0.247,6.222 3.735,3.361 8.711,4.854 13.444,6.221 z m 201.644,34.233 c -21.784,3.859 -43.694,7.472 -65.726,8.589 -24.147,1.618 -48.294,0.247 -72.191,-2.241 -4.604,-0.623 -9.211,-1.368 -13.317,-3.483 -2.116,-1.246 -4.231,-3.236 -4.106,-5.854 0.247,-4.106 3.73,-6.967 6.222,-9.956 -7.715,2.739 -15.434,5.599 -21.906,10.708 -2.742,2.116 -5.478,5.474 -4.733,9.208 1.125,4.356 5.356,6.97 9.09,8.96 9.208,4.733 19.54,6.846 29.625,8.714 25.511,4.11 51.527,4.235 77.167,2.488 27.141,-2.115 54.148,-6.594 80.411,-14.313 -7.468,-3.358 -14.564,-7.221 -20.536,-12.82 z m -136.796,43.071 c -6.97,1.99 -14.066,4.357 -19.79,8.957 -2.868,2.241 -5.105,6.104 -3.734,9.713 1.743,4.604 6.1,7.347 10.203,9.705 10.708,5.854 22.78,8.589 34.604,10.708 26.765,4.229 54.27,3.608 80.908,-1.12 15.806,-2.989 31.615,-7.221 46.301,-13.815 -9.584,-3.984 -18.917,-8.467 -27.878,-13.693 -15.559,2.738 -31.246,5.603 -47.178,6.598 -21.032,1.618 -42.319,-0.125 -63.355,-2.738 -4.98,-1.121 -11.202,-1.618 -14.563,-5.976 -1.739,-3.613 2.242,-6.227 4.482,-8.339 z m 170.277,80.031 c 17.424,-3.604 34.977,-7.719 50.908,-15.806 4.976,-2.867 11.076,-5.979 12.698,-11.95 0.87,-5.725 -5.105,-8.714 -9.337,-11.08 2.613,2.993 4.356,7.347 1.74,10.83 -4.357,5.853 -11.821,8.091 -18.42,10.332 -20.66,5.85 -42.072,8.216 -63.355,10.582 -56.385,5.102 -113.146,6.348 -169.528,1.618 -18.92,-1.994 -38.217,-4.109 -56.264,-10.829 -2.86,-1.246 -7.217,-2.492 -7.217,-6.352 1.117,-3.354 4.357,-5.227 7.217,-6.845 12.945,-6.595 27.384,-10.207 41.822,-11.077 -4.228,-2.491 -9.208,-2.738 -14.062,-2.613 -12.076,0.373 -23.9,3.483 -35.349,7.347 -9.834,3.604 -19.916,7.59 -27.76,14.811 -3.111,2.735 -5.971,7.962 -2.739,11.699 4.98,5.353 12.699,6.72 19.54,8.338 38.338,6.599 77.171,10.328 116.011,11.699 51.531,1.498 103.434,-0.744 154.095,-10.704 z m 51.033,6.724 c -23.402,7.468 -47.672,11.574 -71.822,14.936 -41.696,5.227 -83.769,6.845 -125.716,5.603 -25.515,-0.995 -51.03,-2.738 -76.176,-6.974 5.85,3.984 13.071,5.227 19.794,7.096 28.257,5.976 57.255,7.096 86.01,7.966 42.19,0.748 84.387,-0.87 125.962,-7.468 19.669,-3.48 39.459,-7.715 57.13,-16.927 9.215,-4.854 18.552,-12.326 20.163,-23.152 -9.332,9.955 -22.772,14.563 -35.345,18.92 z"
   id="path1-49"
   style="fill:#ffffff;fill-opacity:1">

</path>

</g></g><g
       id="g14"
       transform="matrix(0.07116975,0,0,0.07116975,47.514296,4.7296203)"
       style="fill:#ffffff;fill-opacity:1"><path
         fill="#689f63"
         d="m 319.37076,322.31967 c -1.46,0 -2.91,-0.383 -4.19,-1.12 l -13.337,-7.896 c -1.992,-1.114 -1.02,-1.508 -0.363,-1.735 2.656,-0.93 3.195,-1.14 6.03,-2.75 0.298,-0.17 0.688,-0.11 0.993,0.07 l 10.246,6.08 c 0.37,0.2 0.895,0.2 1.238,0 l 39.95,-23.06 c 0.37,-0.21 0.61,-0.64 0.61,-1.08 v -46.1 c 0,-0.46 -0.24,-0.87 -0.618,-1.1 l -39.934,-23.04 c -0.37,-0.22 -0.86,-0.22 -1.23,0 l -39.926,23.04 c -0.387,0.22 -0.633,0.65 -0.633,1.09 v 46.1 c 0,0.44 0.24,0.86 0.62,1.07 l 10.94,6.32 c 5.94,2.97 9.57,-0.53 9.57,-4.05 v -45.5 c 0,-0.65 0.51,-1.15 1.16,-1.15 h 5.06 c 0.63,0 1.15,0.5 1.15,1.15 v 45.52 c 0,7.92 -4.32,12.47 -11.83,12.47 -2.31,0 -4.13,0 -9.21,-2.5 l -10.48,-6.04 c -2.59,-1.5 -4.19,-4.3 -4.19,-7.29 v -46.1 c 0,-3 1.6,-5.8 4.19,-7.28 l 39.99,-23.07 c 2.53,-1.43 5.89,-1.43 8.4,0 l 39.94,23.08 c 2.58,1.49 4.19,4.28 4.19,7.28 v 46.1 c 0,2.99 -1.61,5.78 -4.19,7.28 l -39.94,23.07 c -1.28,0.74 -2.73,1.12 -4.21,1.12"
         id="path11"
         style="fill:#ffffff;fill-opacity:1" /><path
         fill="#689f63"
         d="m 331.71076,290.55367 c -17.48,0 -21.145,-8.024 -21.145,-14.754 0,-0.64 0.516,-1.15 1.157,-1.15 h 5.16 c 0.57,0 1.05,0.415 1.14,0.978 0.78,5.258 3.1,7.91 13.67,7.91 8.42,0 12,-1.902 12,-6.367 0,-2.57 -1.02,-4.48 -14.1,-5.76 -10.94,-1.08 -17.7,-3.49 -17.7,-12.24 0,-8.06 6.8,-12.86 18.19,-12.86 12.79,0 19.13,4.44 19.93,13.98 0.03,0.33 -0.09,0.65 -0.31,0.89 -0.22,0.23 -0.53,0.37 -0.85,0.37 h -5.19 c -0.54,0 -1.01,-0.38 -1.12,-0.9 -1.25,-5.53 -4.27,-7.3 -12.48,-7.3 -9.19,0 -10.26,3.2 -10.26,5.6 0,2.91 1.26,3.76 13.66,5.4 12.28,1.63 18.11,3.93 18.11,12.56 0,8.7 -7.26,13.69 -19.92,13.69 m 48.66,-48.89 h 1.34 c 1.1,0 1.31,-0.77 1.31,-1.22 0,-1.18 -0.81,-1.18 -1.26,-1.18 h -1.38 z m -1.63,-3.78 h 2.97 c 1.02,0 3.02,0 3.02,2.28 0,1.59 -1.02,1.92 -1.63,2.12 1.19,0.08 1.27,0.86 1.43,1.96 0.08,0.69 0.21,1.88 0.45,2.28 h -1.83 c -0.05,-0.4 -0.33,-2.6 -0.33,-2.72 -0.12,-0.49 -0.29,-0.73 -0.9,-0.73 h -1.51 v 3.46 h -1.67 z m -3.57,4.3 c 0,3.58 2.89,6.48 6.44,6.48 3.58,0 6.47,-2.96 6.47,-6.48 0,-3.59 -2.93,-6.44 -6.48,-6.44 -3.5,0 -6.44,2.81 -6.44,6.43 m 14.16,0.03 c 0,4.24 -3.47,7.7 -7.7,7.7 -4.2,0 -7.7,-3.42 -7.7,-7.7 0,-4.36 3.58,-7.7 7.7,-7.7 4.15,0 7.69,3.35 7.69,7.7"
         id="path12"
         style="fill:#ffffff;fill-opacity:1" /><path
         fill="#333333"
         fill-rule="evenodd"
         d="m 195.65976,141.93967 c 0,-1.84 -0.97,-3.53 -2.558,-4.445 l -42.356,-24.37 c -0.715,-0.42 -1.516,-0.64 -2.328,-0.67 h -0.438 c -0.812,0.03 -1.613,0.25 -2.34,0.67 l -42.354,24.37 c -1.578,0.92 -2.562,2.61 -2.562,4.45 l 0.093,65.64 c 0,0.91 0.47,1.76 1.27,2.21 0.78,0.48 1.76,0.48 2.54,0 l 25.18,-14.42 c 1.59,-0.946 2.56,-2.618 2.56,-4.44 v -30.665 c 0,-1.83 0.97,-3.52 2.555,-4.43 l 10.72,-6.174 c 0.796,-0.46 1.67,-0.688 2.56,-0.688 0.876,0 1.77,0.226 2.544,0.687 l 10.715,6.172 c 1.586,0.91 2.56,2.6 2.56,4.43 v 30.663 c 0,1.82 0.983,3.5 2.565,4.44 l 25.164,14.41 c 0.79,0.47 1.773,0.47 2.56,0 0.776,-0.45 1.268,-1.3 1.268,-2.21 z m 199.868,34.176 c 0,0.457 -0.243,0.88 -0.64,1.106 l -14.548,8.386 c -0.395,0.227 -0.883,0.227 -1.277,0 l -14.55,-8.386 c -0.4,-0.227 -0.64,-0.65 -0.64,-1.106 v -16.796 c 0,-0.458 0.24,-0.88 0.63,-1.11 l 14.54,-8.4 c 0.4,-0.23 0.89,-0.23 1.29,0 l 14.55,8.4 c 0.4,0.23 0.64,0.652 0.64,1.11 z m 3.93,-124.401996 c -0.794,-0.442 -1.76,-0.43 -2.544,0.027 -0.78,0.46 -1.262,1.3 -1.262,2.21 v 64.999996 c 0,0.64 -0.34,1.23 -0.894,1.55 -0.55,0.32 -1.235,0.32 -1.79,0 l -10.61,-6.111 c -1.58,-0.914 -3.526,-0.914 -5.112,0 l -42.37,24.453 c -1.583,0.91 -2.56,2.6 -2.56,4.42 v 48.92 c 0,1.83 0.977,3.51 2.56,4.43 l 42.37,24.47 c 1.582,0.91 3.53,0.91 5.117,0 l 42.37,-24.48 c 1.58,-0.92 2.56,-2.6 2.56,-4.43 V 70.252674 c 0,-1.856 -1.01,-3.563 -2.63,-4.47 z m 141.093,107.163996 c 1.574,-0.914 2.543,-2.602 2.543,-4.422 v -11.856 c 0,-1.824 -0.97,-3.507 -2.547,-4.425 l -42.1,-24.44 c -1.59,-0.92 -3.54,-0.92 -5.13,0 l -42.36,24.45 c -1.59,0.92 -2.56,2.6 -2.56,4.43 v 48.9 c 0,1.84 0.99,3.54 2.58,4.45 l 42.09,23.99 c 1.55,0.89 3.45,0.9 5.02,0.03 l 25.46,-14.15 c 0.8,-0.45 1.31,-1.3 1.31,-2.22 0,-0.92 -0.49,-1.78 -1.29,-2.23 l -42.62,-24.46 c -0.8,-0.45 -1.29,-1.3 -1.29,-2.21 v -15.34 c 0,-0.916 0.48,-1.76 1.28,-2.216 l 13.26,-7.65 c 0.79,-0.46 1.76,-0.46 2.55,0 l 13.27,7.65 c 0.79,0.45 1.28,1.3 1.28,2.21 v 12.06 c 0,0.91 0.49,1.76 1.28,2.22 0.79,0.45 1.77,0.45 2.56,-0.01 z m 0,0"
         id="path13"
         style="fill:#ffffff;fill-opacity:1" /><path
         fill="#689f63"
         fill-rule="evenodd"
         d="m 495.26176,156.58967 c 0.3,-0.177 0.676,-0.177 0.98,0 l 8.13,4.69 c 0.304,0.176 0.49,0.5 0.49,0.85 v 9.39 c 0,0.35 -0.186,0.674 -0.49,0.85 l -8.13,4.69 c -0.304,0.177 -0.68,0.177 -0.98,0 l -8.125,-4.69 c -0.31,-0.176 -0.5,-0.5 -0.5,-0.85 v -9.39 c 0,-0.35 0.18,-0.674 0.49,-0.85 z m 0,0"
         id="path14"
         style="fill:#ffffff;fill-opacity:1" /><g
         clip-path="url(#a)"
         transform="translate(22.41776,-112.62633)"
         id="g15"
         style="fill:#ffffff;fill-opacity:1"><path
           fill="url(#b)"
           d="m 331.363,246.793 -118.715,-58.19 -60.87,124.174 118.712,58.193 z m 0,0"
           id="path15"
           style="fill:#ffffff;fill-opacity:1" /></g><g
         clip-path="url(#c)"
         transform="translate(22.41776,-112.62633)"
         id="g16"
         style="fill:#ffffff;fill-opacity:1"><path
           fill="url(#d)"
           d="m 144.07,264.004 83.825,113.453 110.86,-81.906 -83.83,-113.45 z m 0,0"
           id="path16"
           style="fill:#ffffff;fill-opacity:1" /></g><g
         clip-path="url(#e)"
         transform="translate(22.41776,-112.62633)"
         id="g17"
         style="fill:#ffffff;fill-opacity:1"><path
           fill="url(#f)"
           d="m 197.02,225.934 v 107.43 h 91.683 v -107.43 z m 0,0"
           id="path17"
           style="fill:#ffffff;fill-opacity:1" /></g></g></g></svg>
